<?xml version="1.0" encoding="utf-8"?>
<!-- Generator: Adobe Illustrator 15.1.0, SVG Export Plug-In . SVG Version: 6.00 Build 0)  -->
<!DOCTYPE svg PUBLIC "-//W3C//DTD SVG 1.1//EN" "http://www.w3.org/Graphics/SVG/1.1/DTD/svg11.dtd">
<svg version="1.1" id="Layer_1" xmlns="http://www.w3.org/2000/svg" xmlns:xlink="http://www.w3.org/1999/xlink" x="0px" y="0px"
	 width="73.334px" height="70px" viewBox="-0.75 -3.125 73.334 70" enable-background="new -0.75 -3.125 73.334 70"
	 xml:space="preserve">
<path fill="#DAA520" d="M72.584,28.11L22.979,66.848l-23.729-20V19.365l23.6,16.381L72.584-3.125V28.11z"/>
<g>
	<g enable-background="new    ">
		<path d="M14.58,52.535c-0.075-0.103-0.063-0.26,0.046-0.346l4.125-3.268c0.109-0.087,0.257-0.057,0.333,0.046l0.821,1.123
			c0.076,0.104,0.064,0.26-0.045,0.347l-2.76,2.186l0.936,1.277l2.271-1.799c0.1-0.079,0.257-0.057,0.333,0.046l0.822,1.123
			c0.083,0.113,0.054,0.268-0.046,0.347l-2.272,1.799l1.019,1.393l2.76-2.187c0.109-0.087,0.256-0.058,0.333,0.045l0.822,1.124
			c0.075,0.103,0.063,0.259-0.046,0.346l-4.125,3.268c-0.109,0.086-0.257,0.057-0.333-0.046L14.58,52.535z"/>
		<path d="M20.326,47.805c-0.076-0.104-0.046-0.256,0.054-0.335l0.249-0.197l6.872,0.809l0.011-0.008l-2.678-3.659
			c-0.076-0.103-0.064-0.259,0.046-0.346l1.196-0.947c0.1-0.079,0.257-0.057,0.333,0.046l5.075,6.937
			c0.076,0.103,0.047,0.257-0.053,0.336l-0.16,0.126c-0.029,0.024-0.132,0.057-0.167,0.051l-6.93-0.974l-0.01,0.008l2.814,3.845
			c0.075,0.103,0.062,0.258-0.047,0.345l-1.186,0.939c-0.1,0.079-0.257,0.057-0.332-0.045L20.326,47.805z"/>
		<path d="M28.12,41.811c-0.075-0.104-0.063-0.26,0.036-0.339l2.431-1.926c1.923-1.523,4.683-1.151,6.13,0.827
			c1.463,2,1.073,4.864-0.85,6.388l-2.432,1.926c-0.1,0.079-0.247,0.05-0.322-0.054L28.12,41.811z M34.65,45.314
			c1.126-0.892,1.272-2.456,0.413-3.631c-0.853-1.165-2.341-1.435-3.467-0.543l-0.957,0.758l3.055,4.174L34.65,45.314z"/>
		<path d="M38.293,33.28c1.993-1.579,4.802-1.183,6.31,0.879c1.509,2.061,1.114,4.963-0.879,6.542
			c-1.992,1.578-4.776,1.193-6.284-0.867C35.931,37.772,36.301,34.858,38.293,33.28z M42.517,39.052
			c1.097-0.868,1.314-2.507,0.492-3.63c-0.83-1.134-2.413-1.36-3.509-0.492c-1.086,0.859-1.297,2.508-0.467,3.642
			C39.855,39.694,41.431,39.912,42.517,39.052z"/>
		<path d="M43.305,29.783c-0.076-0.104-0.064-0.26,0.045-0.347l2.979-2.359c1.195-0.947,2.904-0.721,3.802,0.506
			c0.693,0.948,0.644,2.192,0.041,3.24l3.281,1.536c0.167,0.079,0.218,0.299,0.049,0.433l-1.325,1.05
			c-0.08,0.063-0.177,0.06-0.228,0.033l-3.323-1.681l-0.688,0.545l1.923,2.628c0.075,0.103,0.054,0.266-0.046,0.345l-1.186,0.939
			c-0.109,0.087-0.257,0.058-0.333-0.046L43.305,29.783z M48.455,30.262c0.408-0.324,0.471-0.992,0.153-1.424
			c-0.316-0.434-0.922-0.509-1.33-0.185l-1.475,1.168l1.177,1.608L48.455,30.262z"/>
		<path d="M54.001,30.851l-0.158-1.227c-0.018-0.197,0.187-0.327,0.294-0.329c0.055-0.012,1.172-0.033,1.83-0.555
			c0.398-0.315,0.498-0.803,0.234-1.164c-0.316-0.432-0.907-0.486-1.788-0.228c-1.113,0.329-2.695,0.49-3.6-0.746
			c-0.747-1.021-0.733-2.659,0.801-3.874c1.036-0.821,2.233-0.905,2.697-0.917c0.173-0.021,0.288,0.179,0.302,0.283l0.072,1.196
			c0.014,0.169-0.099,0.403-0.24,0.402c-0.128,0.02-1.27,0.029-1.878,0.51c-0.358,0.285-0.446,0.745-0.243,1.023
			c0.279,0.382,0.789,0.433,1.818,0.14c1.011-0.297,2.706-0.646,3.732,0.755c0.776,1.062,0.674,2.836-0.791,3.996
			c-1.295,1.026-2.419,1.038-2.822,0.982C54.087,31.076,54.026,31.059,54.001,30.851z"/>
		<path d="M55.439,20.17c-0.076-0.103-0.064-0.259,0.046-0.346l4.125-3.268c0.109-0.087,0.257-0.056,0.332,0.046l0.822,1.123
			c0.075,0.104,0.063,0.259-0.046,0.346l-2.76,2.187l0.935,1.277l2.272-1.8c0.1-0.079,0.257-0.056,0.332,0.046l0.822,1.123
			c0.083,0.113,0.054,0.267-0.046,0.346l-2.271,1.8l1.019,1.392l2.76-2.187c0.109-0.087,0.257-0.057,0.332,0.045l0.822,1.125
			c0.075,0.103,0.063,0.258-0.046,0.345l-4.125,3.268c-0.109,0.087-0.257,0.057-0.332-0.045L55.439,20.17z"/>
		<path d="M61.277,15.546c-0.075-0.103-0.063-0.26,0.036-0.339l2.432-1.926c1.923-1.523,4.682-1.15,6.13,0.828
			c1.463,2,1.072,4.864-0.851,6.387l-2.431,1.926c-0.1,0.079-0.248,0.05-0.322-0.053L61.277,15.546z M67.809,19.05
			c1.125-0.892,1.271-2.456,0.412-3.631c-0.853-1.165-2.341-1.435-3.467-0.543l-0.957,0.758l3.055,4.174L67.809,19.05z"/>
	</g>
</g>
</svg>
