<?xml version="1.0" encoding="utf-8"?>
<!-- Generator: Adobe Illustrator 15.1.0, SVG Export Plug-In . SVG Version: 6.00 Build 0)  -->
<!DOCTYPE svg PUBLIC "-//W3C//DTD SVG 1.1//EN" "http://www.w3.org/Graphics/SVG/1.1/DTD/svg11.dtd">
<svg version="1.1" id="Layer_1" xmlns="http://www.w3.org/2000/svg" xmlns:xlink="http://www.w3.org/1999/xlink" x="0px" y="0px"
	 width="282.289px" height="23.373px" viewBox="0 0 282.289 23.373" enable-background="new 0 0 282.289 23.373"
	 xml:space="preserve">
<g>
	<path fill="#667682" d="M5.19,21.567c-0.181,0-0.273-0.031-0.273-0.182v-0.06c0-0.182,0.092-0.211,0.273-0.211h1.543
		c0.696,0,0.726-0.091,0.726-2.299V1.721H5.341c-2.571,0-4.115,1.634-4.115,4.932v0.816c0,0.181-0.03,0.273-0.181,0.273h-0.06
		c-0.182,0-0.212-0.092-0.212-0.273v-6.08c0-0.183,0.03-0.243,0.272-0.243h16.276c0.243,0,0.272,0.06,0.272,0.243V7.47
		c0,0.181-0.03,0.272-0.211,0.272h-0.062c-0.151,0-0.181-0.091-0.181-0.272V6.653c0-3.298-1.543-4.932-4.114-4.932h-2.118v17.094
		c0,2.208,0.03,2.298,0.726,2.298h1.573c0.182,0,0.273,0.031,0.273,0.213v0.06c0,0.152-0.092,0.181-0.273,0.181H5.19L5.19,21.567z"
		/>
	<path fill="#667682" d="M31.147,21.567c-0.182,0-0.272-0.031-0.272-0.182v-0.06c0-0.182,0.091-0.211,0.272-0.211h1.543
		c0.695,0,0.726-0.091,0.726-2.299v-7.866H24.31v7.867c0,2.208,0.03,2.298,0.726,2.298h1.572c0.183,0,0.273,0.031,0.273,0.213v0.06
		c0,0.152-0.09,0.181-0.273,0.181h-8.016c-0.182,0-0.272-0.03-0.272-0.181v-0.06c0-0.182,0.09-0.213,0.272-0.213h1.542
		c0.695,0,0.726-0.09,0.726-2.298V3.899c0-2.209-0.031-2.299-0.726-2.299h-1.573c-0.181,0-0.272-0.031-0.272-0.212v-0.06
		c0-0.151,0.092-0.181,0.272-0.181h8.018c0.182,0,0.273,0.03,0.273,0.181v0.062c0,0.18-0.091,0.211-0.273,0.211h-1.542
		c-0.696,0-0.726,0.09-0.726,2.299v6.475h9.106V3.899c0-2.209-0.03-2.299-0.726-2.299h-1.573c-0.182,0-0.273-0.031-0.273-0.212
		v-0.06c0-0.151,0.091-0.181,0.273-0.181h8.017c0.182,0,0.273,0.03,0.273,0.181v0.062c0,0.18-0.092,0.211-0.273,0.211h-1.542
		c-0.696,0-0.727,0.09-0.727,2.299v14.916c0,2.208,0.03,2.298,0.727,2.298h1.573c0.181,0,0.272,0.031,0.272,0.213v0.06
		c0,0.152-0.091,0.181-0.272,0.181H31.147L31.147,21.567z"/>
	<path fill="#667682" d="M53.08,10.464c0.182,0,0.273,0.029,0.273,0.181v0.363c0,0.182-0.091,0.212-0.273,0.212l-6.534-0.091v9.864
		h4.386c2.996,0,4.175-2.452,4.297-4.63l0.12-2.057c0-0.182,0.061-0.272,0.182-0.272h0.061c0.182,0,0.212,0.09,0.212,0.272
		l-0.393,7.019c0,0.181-0.031,0.241-0.272,0.241h-14.31c-0.181,0-0.272-0.031-0.272-0.181v-0.06c0-0.182,0.091-0.211,0.272-0.211
		h1.543c0.696,0,0.726-0.091,0.726-2.3V3.899c0-2.209-0.03-2.299-0.726-2.299h-1.573c-0.181,0-0.273-0.031-0.273-0.212v-0.06
		c0-0.151,0.092-0.181,0.273-0.181h13.22c0.242,0,0.272,0.06,0.272,0.243V7.47c0,0.181-0.03,0.272-0.211,0.272h-0.061
		c-0.151,0-0.182-0.091-0.182-0.272V6.562c0-3.298-1.542-4.841-4.114-4.841h-3.176v8.833L53.08,10.464z"/>
	<path fill="#667682" d="M64.576,21.567c-0.182,0-0.272-0.031-0.272-0.182v-0.06c0-0.182,0.09-0.211,0.272-0.211h1.542
		c0.696,0,0.726-0.091,0.726-2.299V3.899c0-2.209-0.03-2.299-0.726-2.299h-1.573c-0.181,0-0.272-0.031-0.272-0.212v-0.06
		c0-0.151,0.091-0.181,0.272-0.181h8.289c3.267,0,7.654,0.666,7.654,4.81c0,2.723-2.087,4.084-5.203,4.75v0.061
		c3.025,0.09,6.353,1.15,6.353,4.962c0,4.234-4.145,5.838-8.168,5.838H64.576L64.576,21.567z M70.294,10.585h2.33
		c2.874,0,4.174-1.12,4.174-4.507c0-3.63-1.452-4.357-3.963-4.357h-2.541V10.585L70.294,10.585z M73.531,20.993
		c2.813,0,4.205-1.332,4.205-4.933c0-3.689-1.361-4.9-5.203-4.9h-2.239v9.833H73.531z"/>
	<path fill="#667682" d="M94.224,17.543l-1.361-3.812h-6.807l-0.151,0.453c-0.515,1.392-1.029,3.146-1.029,4.599
		c0,1.512,0.665,2.33,2.027,2.33h0.939c0.181,0,0.271,0.03,0.271,0.211v0.06c0,0.152-0.091,0.182-0.271,0.182h-6.777
		c-0.182,0-0.272-0.031-0.272-0.182v-0.06c0-0.182,0.091-0.211,0.272-0.211h0.363c0.907,0,1.088-0.362,2.147-2.783
		c0.424-1,1.059-2.602,1.573-3.963L90.14,1.026c0.06-0.182,0.121-0.272,0.392-0.272h0.605c0.243,0,0.303,0.029,0.393,0.272
		l6.535,16.519c1.24,3.116,1.453,3.568,2.572,3.568h0.242c0.182,0,0.272,0.031,0.272,0.213v0.06c0,0.152-0.09,0.181-0.272,0.181
		h-5.113c-0.182,0-0.243-0.06-0.272-0.181C95.192,20.447,94.708,18.905,94.224,17.543z M89.536,4.503h-0.031l-3.238,8.653h6.384
		L89.536,4.503z"/>
	<path fill="#667682" d="M101.515,21.567c-0.182,0-0.272-0.031-0.272-0.182v-0.06c0-0.182,0.09-0.211,0.272-0.211h1.543
		c0.695,0,0.725-0.091,0.725-2.299V3.899c0-2.209-0.03-2.299-0.725-2.299h-1.543c-0.182,0-0.272-0.031-0.272-0.212v-0.06
		c0-0.151,0.09-0.181,0.272-0.181h8.591c0.182,0,0.273,0.03,0.273,0.181v0.062c0,0.18-0.091,0.211-0.273,0.211h-2.147
		c-0.696,0-0.726,0.09-0.726,2.299v17.093h3.782c2.541,0,4.144-2.057,4.296-5.506l0.06-1.181c0-0.181,0.03-0.271,0.182-0.271h0.06
		c0.182,0,0.213,0.09,0.213,0.271l-0.333,7.021c0,0.181-0.03,0.241-0.272,0.241H101.515L101.515,21.567z"/>
	<path fill="#667682" d="M118.878,21.567c-0.182,0-0.273-0.031-0.273-0.182v-0.06c0-0.182,0.091-0.211,0.273-0.211h1.542
		c0.696,0,0.726-0.091,0.726-2.299V1.721h-2.117c-2.572,0-4.115,1.634-4.115,4.932v0.816c0,0.181-0.031,0.273-0.182,0.273h-0.061
		c-0.181,0-0.211-0.092-0.211-0.273v-6.08c0-0.183,0.03-0.243,0.272-0.243h16.276c0.242,0,0.273,0.06,0.273,0.243V7.47
		c0,0.181-0.031,0.272-0.213,0.272h-0.06c-0.152,0-0.182-0.091-0.182-0.272V6.653c0-3.298-1.543-4.932-4.114-4.932h-2.118v17.094
		c0,2.208,0.03,2.298,0.725,2.298h1.574c0.182,0,0.272,0.031,0.272,0.213v0.06c0,0.152-0.09,0.181-0.272,0.181H118.878
		L118.878,21.567z"/>
	<path fill="#667682" d="M132.613,21.567c-0.183,0-0.273-0.031-0.273-0.182v-0.06c0-0.182,0.09-0.211,0.273-0.211h1.542
		c0.695,0,0.726-0.091,0.726-2.299V3.899c0-2.209-0.03-2.299-0.726-2.299h-1.573c-0.182,0-0.271-0.031-0.271-0.212v-0.06
		c0-0.151,0.09-0.181,0.271-0.181h8.017c0.181,0,0.272,0.03,0.272,0.181v0.062c0,0.18-0.091,0.211-0.272,0.211h-1.542
		c-0.696,0-0.726,0.09-0.726,2.299v14.916c0,2.208,0.03,2.298,0.726,2.298h1.573c0.18,0,0.271,0.031,0.271,0.213v0.06
		c0,0.152-0.091,0.181-0.271,0.181H132.613L132.613,21.567z"/>
	<path fill="#667682" d="M160.233,0.995c0.06-0.212,0.21-0.242,0.393-0.242h0.938c0.181,0,0.272,0.061,0.272,0.211l0.604,17.85
		c0.061,2.208,0.121,2.299,0.816,2.299h1.332c0.181,0,0.273,0.03,0.273,0.211v0.06c0,0.152-0.092,0.182-0.273,0.182h-7.776
		c-0.18,0-0.272-0.031-0.272-0.182v-0.06c0-0.182,0.092-0.211,0.272-0.211h1.483c0.695,0,0.755-0.091,0.695-2.299l-0.394-12.162
		h-0.06l-6.354,15.096c-0.06,0.151-0.121,0.211-0.332,0.211h-0.666c-0.182,0-0.243-0.03-0.303-0.211L144.441,6.41h-0.061
		l-0.303,8.683c-0.18,5.173,0.485,6.021,2.27,6.021h0.816c0.181,0,0.272,0.03,0.272,0.211v0.06c0,0.152-0.091,0.182-0.272,0.182
		h-5.989c-0.182,0-0.272-0.031-0.272-0.182v-0.06c0-0.182,0.09-0.211,0.272-0.211h0.393c1.24,0,1.725-0.877,1.936-6.021
		l0.606-14.128c0-0.151,0.09-0.211,0.273-0.211h0.936c0.183,0,0.334,0.03,0.395,0.242l7.321,17.335h0.031L160.233,0.995z"/>
	<path fill="#667682" d="M174.39,21.959c-6.11,0-9.408-3.902-9.408-10.225c0-6.443,3.509-10.981,9.682-10.981
		c6.111,0,9.408,3.903,9.408,10.225C184.071,17.423,180.561,21.959,174.39,21.959z M174.542,1.268c-4.931,0-5.596,4.84-5.596,10.377
		c0,5.053,0.636,9.772,5.566,9.772c4.931,0,5.597-4.81,5.597-10.347C180.108,6.017,179.472,1.268,174.542,1.268z"/>
	<path fill="#667682" d="M197.11,16.878c-1.422-4.206-2.089-5.416-4.357-5.416h-1.815v7.352c0,2.208,0.03,2.299,0.726,2.299h1.574
		c0.182,0,0.272,0.03,0.272,0.211v0.06c0,0.152-0.09,0.182-0.272,0.182h-8.019c-0.181,0-0.272-0.031-0.272-0.182v-0.06
		c0-0.182,0.091-0.211,0.272-0.211h1.543c0.696,0,0.727-0.091,0.727-2.299V3.899c0-2.209-0.03-2.299-0.727-2.299h-1.573
		c-0.18,0-0.272-0.031-0.272-0.212v-0.06c0-0.151,0.092-0.181,0.272-0.181h10.317c2.723,0,6.141,1.089,6.141,5.113
		c0,2.844-2.662,4.599-5.354,4.901v0.061c2.42,0.907,3.116,2.45,4.265,5.203l0.999,2.39c0.846,2.025,1.119,2.299,1.965,2.299h0.666
		c0.181,0,0.272,0.03,0.272,0.211v0.06c0,0.152-0.092,0.182-0.272,0.182h-5.173c-0.181,0-0.211-0.031-0.273-0.182L197.11,16.878z
		 M194.902,10.888c1.633,0,3.055-1.21,3.055-4.599c0-3.782-1.574-4.569-3.176-4.569h-3.843v9.167H194.902L194.902,10.888z"/>
	<path fill="#667682" d="M216.956,10.464c0.182,0,0.272,0.029,0.272,0.181v0.363c0,0.182-0.09,0.212-0.272,0.212l-6.534-0.091v9.864
		h4.386c2.996,0,4.175-2.452,4.296-4.63l0.121-2.057c0-0.182,0.06-0.272,0.183-0.272h0.06c0.182,0,0.212,0.09,0.212,0.272
		l-0.395,7.019c0,0.181-0.03,0.241-0.271,0.241h-14.309c-0.182,0-0.272-0.031-0.272-0.181v-0.06c0-0.182,0.091-0.211,0.272-0.211
		h1.542c0.695,0,0.726-0.091,0.726-2.3V3.899c0-2.209-0.031-2.299-0.726-2.299h-1.572c-0.182,0-0.273-0.031-0.273-0.212v-0.06
		c0-0.151,0.091-0.181,0.273-0.181h13.22c0.24,0,0.271,0.06,0.271,0.243V7.47c0,0.181-0.031,0.272-0.21,0.272h-0.061
		c-0.153,0-0.182-0.091-0.182-0.272V6.562c0-3.298-1.542-4.841-4.114-4.841h-3.176v8.833L216.956,10.464z"/>
	<path fill="#667682" d="M230.177,20.721l-0.272-6.416c0-0.182,0.029-0.271,0.21-0.271h0.062c0.151,0,0.181,0.089,0.181,0.271
		l0.03,0.605c0.15,3.237,2.058,6.536,5.839,6.536c2.783,0,4.386-1.362,4.386-3.298c0-2.843-1.965-3.993-5.142-5.688
		c-2.754-1.452-5.053-2.874-5.053-6.231c0-3.176,2.359-5.476,6.081-5.476c1.875,0,4.114,0.574,5.083,0.907
		c0.151,0.06,0.182,0.121,0.182,0.271V7.47c0,0.181-0.031,0.272-0.213,0.272h-0.06c-0.151,0-0.182-0.091-0.182-0.272V6.894
		c0-4.054-2.299-5.626-5.051-5.626c-2.42,0-3.57,1.362-3.57,3.085c0,2.451,1.905,3.541,4.659,4.992
		c3.328,1.785,5.687,3.176,5.687,6.837c0,3.419-2.722,5.778-6.868,5.778c-2.027,0-4.447-0.543-5.808-0.967
		C230.208,20.931,230.177,20.901,230.177,20.721z"/>
	<path fill="#667682" d="M262.154,1.6c-1.241,0-1.937,0.877-1.937,6.02v5.991c0,5.536-1.755,8.348-7.019,8.348
		c-4.629,0-7.502-2.328-7.502-7.38V3.899c0-2.209-0.031-2.299-0.727-2.299h-1.575c-0.179,0-0.271-0.031-0.271-0.212v-0.06
		c0-0.151,0.092-0.181,0.271-0.181h8.019c0.18,0,0.272,0.03,0.272,0.181v0.062c0,0.18-0.092,0.211-0.272,0.211h-1.542
		c-0.695,0-0.727,0.09-0.727,2.299v10.225c0,4.629,1.121,6.959,5.264,6.959c3.509,0,5.204-2.088,5.204-7.473V7.62
		c0-5.173-0.786-6.02-2.572-6.02h-1.271c-0.181,0-0.271-0.031-0.271-0.212v-0.06c0-0.151,0.09-0.181,0.271-0.181h7.019
		c0.182,0,0.272,0.03,0.272,0.181v0.062c0,0.18-0.091,0.211-0.272,0.211L262.154,1.6L262.154,1.6z"/>
	<path fill="#667682" d="M278.006,16.818h0.06V7.62c0-5.173-0.785-6.02-2.571-6.02h-1.271c-0.181,0-0.273-0.031-0.273-0.212v-0.06
		c0-0.151,0.092-0.181,0.273-0.181h7.02c0.182,0,0.273,0.03,0.273,0.181v0.062c0,0.18-0.091,0.211-0.273,0.211h-0.635
		c-1.241,0-1.937,0.876-1.937,6.02v14.128c0,0.152-0.09,0.212-0.303,0.212h-0.634c-0.184,0-0.243-0.06-0.362-0.212L265.18,5.867
		h-0.06v9.226c0,5.174,0.787,6.021,2.571,6.021h1.27c0.181,0,0.273,0.031,0.273,0.213v0.06c0,0.152-0.092,0.181-0.273,0.181h-7.019
		c-0.183,0-0.273-0.03-0.273-0.181v-0.06c0-0.182,0.091-0.213,0.273-0.213h0.634c1.24,0,1.936-0.877,1.936-6.021V0.964
		c0-0.151,0.091-0.211,0.302-0.211h0.635c0.181,0,0.243,0.061,0.363,0.211L278.006,16.818z"/>
</g>
</svg>
