<svg enable-background="new 0 0 282.289 23.373" height="23.373" viewBox="0 0 282.289 23.373" width="282.289" xmlns="http://www.w3.org/2000/svg"><g fill="#FFF"><path d="m5.19 21.567c-.181 0-.273-.031-.273-.182v-.06c0-.182.092-.211.273-.211h1.543c.696 0 .726-.091.726-2.299v-17.094h-2.118c-2.571 0-4.115 1.634-4.115 4.932v.816c0 .181-.03.273-.181.273h-.06c-.182 0-.212-.092-.212-.273v-6.08c0-.183.03-.243.272-.243h16.276c.243 0 .272.06.272.243v6.081c0 .181-.03.272-.211.272h-.062c-.151 0-.181-.091-.181-.272v-.817c0-3.298-1.543-4.932-4.114-4.932h-2.118v17.094c0 2.208.03 2.298.726 2.298h1.573c.182 0 .273.031.273.213v.06c0 .152-.092.181-.273.181z"/><path d="m31.147 21.567c-.182 0-.272-.031-.272-.182v-.06c0-.182.091-.211.272-.211h1.543c.695 0 .726-.091.726-2.299v-7.866h-9.106v7.867c0 2.208.03 2.298.726 2.298h1.572c.183 0 .273.031.273.213v.06c0 .152-.09.181-.273.181h-8.016c-.182 0-.272-.03-.272-.181v-.06c0-.182.09-.213.272-.213h1.542c.695 0 .726-.09.726-2.298v-14.917c0-2.209-.031-2.299-.726-2.299h-1.573c-.181 0-.272-.031-.272-.212v-.06c0-.151.092-.181.272-.181h8.018c.182 0 .273.03.273.181v.062c0 .18-.091.211-.273.211h-1.542c-.696 0-.726.09-.726 2.299v6.475h9.106v-6.476c0-2.209-.03-2.299-.726-2.299h-1.573c-.182 0-.273-.031-.273-.212v-.06c0-.151.091-.181.273-.181h8.017c.182 0 .273.03.273.181v.062c0 .18-.092.211-.273.211h-1.542c-.696 0-.727.09-.727 2.299v14.916c0 2.208.03 2.298.727 2.298h1.573c.181 0 .272.031.272.213v.06c0 .152-.091.181-.272.181h-8.019z"/><path d="m53.08 10.464c.182 0 .273.029.273.181v.363c0 .182-.091.212-.273.212l-6.534-.091v9.864h4.386c2.996 0 4.175-2.452 4.297-4.63l.12-2.057c0-.182.061-.272.182-.272h.061c.182 0 .212.09.212.272l-.393 7.019c0 .181-.031.241-.272.241h-14.31c-.181 0-.272-.031-.272-.181v-.06c0-.182.091-.211.272-.211h1.543c.696 0 .726-.091.726-2.3v-14.915c0-2.209-.03-2.299-.726-2.299h-1.573c-.181 0-.273-.031-.273-.212v-.06c0-.151.092-.181.273-.181h13.22c.242 0 .272.06.272.243v6.08c0 .181-.03.272-.211.272h-.061c-.151 0-.182-.091-.182-.272v-.908c0-3.298-1.542-4.841-4.114-4.841h-3.176v8.833z"/><path d="m64.576 21.567c-.182 0-.272-.031-.272-.182v-.06c0-.182.09-.211.272-.211h1.542c.696 0 .726-.091.726-2.299v-14.916c0-2.209-.03-2.299-.726-2.299h-1.573c-.181 0-.272-.031-.272-.212v-.06c0-.151.091-.181.272-.181h8.289c3.267 0 7.654.666 7.654 4.81 0 2.723-2.087 4.084-5.203 4.75v.061c3.025.09 6.353 1.15 6.353 4.962 0 4.234-4.145 5.838-8.168 5.838h-8.894zm5.718-10.982h2.33c2.874 0 4.174-1.12 4.174-4.507 0-3.63-1.452-4.357-3.963-4.357h-2.541zm3.237 10.408c2.813 0 4.205-1.332 4.205-4.933 0-3.689-1.361-4.9-5.203-4.9h-2.239v9.833z"/><path d="m94.224 17.543-1.361-3.812h-6.807l-.151.453c-.515 1.392-1.029 3.146-1.029 4.599 0 1.512.665 2.33 2.027 2.33h.939c.181 0 .271.03.271.211v.06c0 .152-.091.182-.271.182h-6.777c-.182 0-.272-.031-.272-.182v-.06c0-.182.091-.211.272-.211h.363c.907 0 1.088-.362 2.147-2.783.424-1 1.059-2.602 1.573-3.963l4.992-13.341c.06-.182.121-.272.392-.272h.605c.243 0 .303.029.393.272l6.535 16.519c1.24 3.116 1.453 3.568 2.572 3.568h.242c.182 0 .272.031.272.213v.06c0 .152-.09.181-.272.181h-5.113c-.182 0-.243-.06-.272-.181-.302-.939-.786-2.481-1.27-3.843zm-4.688-13.04h-.031l-3.238 8.653h6.384z"/><path d="m101.515 21.567c-.182 0-.272-.031-.272-.182v-.06c0-.182.09-.211.272-.211h1.543c.695 0 .725-.091.725-2.299v-14.916c0-2.209-.03-2.299-.725-2.299h-1.543c-.182 0-.272-.031-.272-.212v-.06c0-.151.09-.181.272-.181h8.591c.182 0 .273.03.273.181v.062c0 .18-.091.211-.273.211h-2.147c-.696 0-.726.09-.726 2.299v17.093h3.782c2.541 0 4.144-2.057 4.296-5.506l.06-1.181c0-.181.03-.271.182-.271h.06c.182 0 .213.09.213.271l-.333 7.021c0 .181-.03.241-.272.241h-13.706z"/><path d="m118.878 21.567c-.182 0-.273-.031-.273-.182v-.06c0-.182.091-.211.273-.211h1.542c.696 0 .726-.091.726-2.299v-17.094h-2.117c-2.572 0-4.115 1.634-4.115 4.932v.816c0 .181-.031.273-.182.273h-.061c-.181 0-.211-.092-.211-.273v-6.08c0-.183.03-.243.272-.243h16.276c.242 0 .273.06.273.243v6.081c0 .181-.031.272-.213.272h-.06c-.152 0-.182-.091-.182-.272v-.817c0-3.298-1.543-4.932-4.114-4.932h-2.118v17.094c0 2.208.03 2.298.725 2.298h1.574c.182 0 .272.031.272.213v.06c0 .152-.09.181-.272.181z"/><path d="m132.613 21.567c-.183 0-.273-.031-.273-.182v-.06c0-.182.09-.211.273-.211h1.542c.695 0 .726-.091.726-2.299v-14.916c0-2.209-.03-2.299-.726-2.299h-1.573c-.182 0-.271-.031-.271-.212v-.06c0-.151.09-.181.271-.181h8.017c.181 0 .272.03.272.181v.062c0 .18-.091.211-.272.211h-1.542c-.696 0-.726.09-.726 2.299v14.916c0 2.208.03 2.298.726 2.298h1.573c.18 0 .271.031.271.213v.06c0 .152-.091.181-.271.181h-8.017z"/><path d="m160.233.995c.06-.212.21-.242.393-.242h.938c.181 0 .272.061.272.211l.604 17.85c.061 2.208.121 2.299.816 2.299h1.332c.181 0 .273.03.273.211v.06c0 .152-.092.182-.273.182h-7.776c-.18 0-.272-.031-.272-.182v-.06c0-.182.092-.211.272-.211h1.483c.695 0 .755-.091.695-2.299l-.394-12.162h-.06l-6.354 15.096c-.06.151-.121.211-.332.211h-.666c-.182 0-.243-.03-.303-.211l-6.44-15.338h-.061l-.303 8.683c-.18 5.173.485 6.021 2.27 6.021h.816c.181 0 .272.03.272.211v.06c0 .152-.091.182-.272.182h-5.989c-.182 0-.272-.031-.272-.182v-.06c0-.182.09-.211.272-.211h.393c1.24 0 1.725-.877 1.936-6.021l.606-14.128c0-.151.09-.211.273-.211h.936c.183 0 .334.03.395.242l7.321 17.335h.031z"/><path d="m174.39 21.959c-6.11 0-9.408-3.902-9.408-10.225 0-6.443 3.509-10.981 9.682-10.981 6.111 0 9.408 3.903 9.408 10.225-.001 6.445-3.511 10.981-9.682 10.981zm.152-20.691c-4.931 0-5.596 4.84-5.596 10.377 0 5.053.636 9.772 5.566 9.772 4.931 0 5.597-4.81 5.597-10.347-.001-5.053-.637-9.802-5.567-9.802z"/><path d="m197.11 16.878c-1.422-4.206-2.089-5.416-4.357-5.416h-1.815v7.352c0 2.208.03 2.299.726 2.299h1.574c.182 0 .272.03.272.211v.06c0 .152-.09.182-.272.182h-8.019c-.181 0-.272-.031-.272-.182v-.06c0-.182.091-.211.272-.211h1.543c.696 0 .727-.091.727-2.299v-14.915c0-2.209-.03-2.299-.727-2.299h-1.573c-.18 0-.272-.031-.272-.212v-.06c0-.151.092-.181.272-.181h10.317c2.723 0 6.141 1.089 6.141 5.113 0 2.844-2.662 4.599-5.354 4.901v.061c2.42.907 3.116 2.45 4.265 5.203l.999 2.39c.846 2.025 1.119 2.299 1.965 2.299h.666c.181 0 .272.03.272.211v.06c0 .152-.092.182-.272.182h-5.173c-.181 0-.211-.031-.273-.182zm-2.208-5.99c1.633 0 3.055-1.21 3.055-4.599 0-3.782-1.574-4.569-3.176-4.569h-3.843v9.167h3.964z"/><path d="m216.956 10.464c.182 0 .272.029.272.181v.363c0 .182-.09.212-.272.212l-6.534-.091v9.864h4.386c2.996 0 4.175-2.452 4.296-4.63l.121-2.057c0-.182.06-.272.183-.272h.06c.182 0 .212.09.212.272l-.395 7.019c0 .181-.03.241-.271.241h-14.309c-.182 0-.272-.031-.272-.181v-.06c0-.182.091-.211.272-.211h1.542c.695 0 .726-.091.726-2.3v-14.915c0-2.209-.031-2.299-.726-2.299h-1.572c-.182 0-.273-.031-.273-.212v-.06c0-.151.091-.181.273-.181h13.22c.24 0 .271.06.271.243v6.08c0 .181-.031.272-.21.272h-.061c-.153 0-.182-.091-.182-.272v-.908c0-3.298-1.542-4.841-4.114-4.841h-3.176v8.833z"/><path d="m230.177 20.721-.272-6.416c0-.182.029-.271.21-.271h.062c.151 0 .181.089.181.271l.03.605c.15 3.237 2.058 6.536 5.839 6.536 2.783 0 4.386-1.362 4.386-3.298 0-2.843-1.965-3.993-5.142-5.688-2.754-1.452-5.053-2.874-5.053-6.231 0-3.176 2.359-5.476 6.081-5.476 1.875 0 4.114.574 5.083.907.151.06.182.121.182.271v5.539c0 .181-.031.272-.213.272h-.06c-.151 0-.182-.091-.182-.272v-.576c0-4.054-2.299-5.626-5.051-5.626-2.42 0-3.57 1.362-3.57 3.085 0 2.451 1.905 3.541 4.659 4.992 3.328 1.785 5.687 3.176 5.687 6.837 0 3.419-2.722 5.778-6.868 5.778-2.027 0-4.447-.543-5.808-.967-.15-.062-.181-.092-.181-.272z"/><path d="m262.154 1.6c-1.241 0-1.937.877-1.937 6.02v5.991c0 5.536-1.755 8.348-7.019 8.348-4.629 0-7.502-2.328-7.502-7.38v-10.68c0-2.209-.031-2.299-.727-2.299h-1.575c-.179 0-.271-.031-.271-.212v-.06c0-.151.092-.181.271-.181h8.019c.18 0 .272.03.272.181v.062c0 .18-.092.211-.272.211h-1.542c-.695 0-.727.09-.727 2.299v10.225c0 4.629 1.121 6.959 5.264 6.959 3.509 0 5.204-2.088 5.204-7.473v-5.991c0-5.173-.786-6.02-2.572-6.02h-1.271c-.181 0-.271-.031-.271-.212v-.06c0-.151.09-.181.271-.181h7.019c.182 0 .272.03.272.181v.062c0 .18-.091.211-.272.211z"/><path d="m278.006 16.818h.06v-9.198c0-5.173-.785-6.02-2.571-6.02h-1.271c-.181 0-.273-.031-.273-.212v-.06c0-.151.092-.181.273-.181h7.02c.182 0 .273.03.273.181v.062c0 .18-.091.211-.273.211h-.635c-1.241 0-1.937.876-1.937 6.02v14.128c0 .152-.09.212-.303.212h-.634c-.184 0-.243-.06-.362-.212l-12.193-15.882h-.06v9.226c0 5.174.787 6.021 2.571 6.021h1.27c.181 0 .273.031.273.213v.06c0 .152-.092.181-.273.181h-7.019c-.183 0-.273-.03-.273-.181v-.06c0-.182.091-.213.273-.213h.634c1.24 0 1.936-.877 1.936-6.021v-14.129c0-.151.091-.211.302-.211h.635c.181 0 .243.061.363.211z"/></g></svg>
